<svg xmlns="http://www.w3.org/2000/svg" viewBox="0 0 64 64" width="64" height="64">
  <defs>
    <linearGradient id="b" x1="0" y1="0" x2="0" y2="1"><stop offset="0" stop-color="#ff2a2a"/><stop offset="1" stop-color="#8c0d0d"/></linearGradient>
    <linearGradient id="l" x1="0" y1="0" x2="0" y2="1"><stop offset="0" stop-color="#eafdff"/><stop offset="1" stop-color="#34d6ff"/></linearGradient>
    <linearGradient id="y" x1="0" y1="0" x2="0" y2="1"><stop offset="0" stop-color="#fff27a"/><stop offset="1" stop-color="#ffb300"/></linearGradient>
  </defs>
  <rect width="64" height="64" rx="12" fill="#0a0a0c"/>
  <path d="M6,46 Q4,28 18,26 L24,25 28,17 36,17 40,25 46,26 Q60,28 58,46 L58,50 6,50 Z" fill="url(#b)"/>
  <path d="M26,17 L30,10 34,10 38,17 Z" fill="#0c0f12"/>
  <g transform="rotate(-18 18 24)"><rect x="11" y="20" width="15" height="6" rx="1.5" fill="#1a1d22"/><rect x="11" y="20" width="4" height="6" rx="1" fill="url(#l)"/></g>
  <g transform="rotate(18 46 24)"><rect x="38" y="20" width="15" height="6" rx="1.5" fill="#1a1d22"/><rect x="49" y="20" width="4" height="6" rx="1" fill="url(#l)"/></g>
  <path d="M33,36 L27,46 32,46 30,54 39,42 33,42 Z" fill="url(#y)"/>
</svg>
