<svg xmlns="http://www.w3.org/2000/svg" viewBox="0 0 540 440" font-family="Helvetica,Arial,sans-serif"><rect width="540" height="440" fill="#fbfbf9"/><text x="20" y="30" font-size="18" font-weight="bold" fill="#222">Adapter plate — front view (preview)</text><text x="20" y="49" font-size="11" fill="#888">Placeholder dims from adapter-plate.scad — update after measuring (step 000/007).</text><circle cx="240" cy="235" r="160.0" fill="#eef1f4" stroke="#5b6b78" stroke-width="2"/><circle cx="240" cy="235" r="88.0" fill="none" stroke="#aaa" stroke-dasharray="5 4"/><circle cx="240" cy="235" r="48.0" fill="#fff" stroke="#5b6b78" stroke-width="1.5"/><circle cx="240" cy="235" r="120.0" fill="none" stroke="#1565c0" stroke-width="0.7" stroke-dasharray="3 3"/><circle cx="240.0" cy="115.0" r="7.2" fill="#1565c0"/><circle cx="343.9" cy="175.0" r="7.2" fill="#1565c0"/><circle cx="343.9" cy="295.0" r="7.2" fill="#1565c0"/><circle cx="240.0" cy="355.0" r="7.2" fill="#1565c0"/><circle cx="136.1" cy="295.0" r="7.2" fill="#1565c0"/><circle cx="136.1" cy="175.0" r="7.2" fill="#1565c0"/><circle cx="240" cy="235" r="136.0" fill="none" stroke="#2e7d32" stroke-width="0.7" stroke-dasharray="3 3"/><circle cx="292.0" cy="109.4" r="8.8" fill="none" stroke="#2e7d32" stroke-width="2"/><circle cx="365.6" cy="183.0" r="8.8" fill="none" stroke="#2e7d32" stroke-width="2"/><circle cx="365.6" cy="287.0" r="8.8" fill="none" stroke="#2e7d32" stroke-width="2"/><circle cx="292.0" cy="360.6" r="8.8" fill="none" stroke="#2e7d32" stroke-width="2"/><circle cx="188.0" cy="360.6" r="8.8" fill="none" stroke="#2e7d32" stroke-width="2"/><circle cx="114.4" cy="287.0" r="8.8" fill="none" stroke="#2e7d32" stroke-width="2"/><circle cx="114.4" cy="183.0" r="8.8" fill="none" stroke="#2e7d32" stroke-width="2"/><circle cx="188.0" cy="109.4" r="8.8" fill="none" stroke="#2e7d32" stroke-width="2"/><line x1="231" y1="235" x2="249" y2="235" stroke="#c0392b"/><line x1="240" y1="226" x2="240" y2="244" stroke="#c0392b"/><text x="430" y="95" font-size="12" font-weight="bold" fill="#333">Dims</text><text x="430" y="118" font-size="11" fill="#444">Outer ⌀: 200 mm</text><text x="430" y="138" font-size="11" fill="#444">Thickness: 16 mm</text><text x="430" y="158" font-size="11" fill="#444">Motor BC: 150 (6× ⌀9)</text><text x="430" y="178" font-size="11" fill="#444">Bell BC: 170 (8× ⌀11)</text><text x="430" y="198" font-size="11" fill="#444">Bore ⌀: 60 mm</text><text x="430" y="218" font-size="11" fill="#444">Register ⌀: 110 mm</text><circle cx="30" cy="414" r="6" fill="#1565c0"/><text x="44" y="418" font-size="11" fill="#333">motor bolts</text><circle cx="150" cy="414" r="6" fill="none" stroke="#2e7d32" stroke-width="2"/><text x="164" y="418" font-size="11" fill="#333">bellhousing bolts</text></svg>
