<svg xmlns="http://www.w3.org/2000/svg" viewBox="0 0 420 280" font-family="Helvetica,Arial,sans-serif"><rect width="420" height="280" fill="#1b1b1b"/><text x="20" y="30" font-size="18" font-weight="bold" fill="#eee">Custom dash layout (preview) — repurposed EV gauges</text><text x="20" y="48" font-size="11" fill="#999">Faces/panel per ADR-0012 · cut panel: dash-panel.scad · gauge map: dashboard-reuse.md</text><rect x="20" y="54" rx="10" width="380" height="170" fill="#222" stroke="#555" stroke-width="2"/><circle cx="90" cy="69" r="6" fill="#c0392b"/><text x="100" y="73" font-size="9" fill="#bbb">FAULT</text><circle cx="164" cy="69" r="6" fill="#e67e22"/><text x="174" y="73" font-size="9" fill="#bbb">BMS</text><circle cx="238" cy="69" r="6" fill="#1565c0"/><text x="248" y="73" font-size="9" fill="#bbb">12V</text><circle cx="312" cy="69" r="6" fill="#c0392b"/><text x="322" y="73" font-size="9" fill="#bbb">BRAKE</text><circle cx="115" cy="146" r="43.0" fill="#111" stroke="#999" stroke-width="2"/><line x1="87" y1="174" x2="90" y2="171" stroke="#888"/><line x1="77" y1="158" x2="82" y2="157" stroke="#888"/><line x1="75" y1="140" x2="80" y2="141" stroke="#888"/><line x1="83" y1="122" x2="87" y2="125" stroke="#888"/><line x1="97" y1="110" x2="99" y2="115" stroke="#888"/><line x1="115" y1="106" x2="115" y2="111" stroke="#888"/><line x1="133" y1="110" x2="131" y2="115" stroke="#888"/><line x1="147" y1="122" x2="143" y2="125" stroke="#888"/><line x1="155" y1="140" x2="150" y2="141" stroke="#888"/><line x1="153" y1="158" x2="148" y2="157" stroke="#888"/><line x1="143" y1="174" x2="140" y2="171" stroke="#888"/><line x1="115" y1="146" x2="135" y2="122" stroke="#e53935" stroke-width="2.5"/><circle cx="115" cy="146" r="3" fill="#e53935"/><text x="115" y="168" font-size="12" fill="#eee" text-anchor="middle" font-weight="bold">MPH</text><text x="115" y="201" font-size="8" fill="#888" text-anchor="middle">speedo · transaxle</text><circle cx="305" cy="146" r="43.0" fill="#111" stroke="#999" stroke-width="2"/><line x1="277" y1="174" x2="280" y2="171" stroke="#888"/><line x1="267" y1="158" x2="272" y2="157" stroke="#888"/><line x1="265" y1="140" x2="270" y2="141" stroke="#888"/><line x1="273" y1="122" x2="277" y2="125" stroke="#888"/><line x1="287" y1="110" x2="289" y2="115" stroke="#888"/><line x1="305" y1="106" x2="305" y2="111" stroke="#888"/><line x1="323" y1="110" x2="321" y2="115" stroke="#888"/><line x1="337" y1="122" x2="333" y2="125" stroke="#888"/><line x1="345" y1="140" x2="340" y2="141" stroke="#888"/><line x1="343" y1="158" x2="338" y2="157" stroke="#888"/><line x1="333" y1="174" x2="330" y2="171" stroke="#888"/><line x1="305" y1="146" x2="325" y2="122" stroke="#e53935" stroke-width="2.5"/><circle cx="305" cy="146" r="3" fill="#e53935"/><text x="305" y="168" font-size="12" fill="#eee" text-anchor="middle" font-weight="bold">RPM x1000</text><text x="305" y="201" font-size="8" fill="#888" text-anchor="middle">motor rpm</text><circle cx="210" cy="104" r="20.0" fill="#111" stroke="#999" stroke-width="2"/><line x1="198" y1="116" x2="202" y2="112" stroke="#888"/><line x1="194" y1="109" x2="199" y2="108" stroke="#888"/><line x1="193" y1="101" x2="198" y2="102" stroke="#888"/><line x1="196" y1="94" x2="200" y2="97" stroke="#888"/><line x1="202" y1="89" x2="205" y2="93" stroke="#888"/><line x1="210" y1="87" x2="210" y2="92" stroke="#888"/><line x1="218" y1="89" x2="215" y2="93" stroke="#888"/><line x1="224" y1="94" x2="220" y2="97" stroke="#888"/><line x1="227" y1="101" x2="222" y2="102" stroke="#888"/><line x1="226" y1="109" x2="221" y2="108" stroke="#888"/><line x1="222" y1="116" x2="218" y2="112" stroke="#888"/><text x="210" y="114" font-size="9" fill="#eee" text-anchor="middle" font-weight="bold">CHARGE %</text><text x="210" y="136" font-size="8" fill="#888" text-anchor="middle">← fuel</text><circle cx="210" cy="158" r="20.0" fill="#111" stroke="#999" stroke-width="2"/><line x1="198" y1="170" x2="202" y2="166" stroke="#888"/><line x1="194" y1="163" x2="199" y2="162" stroke="#888"/><line x1="193" y1="155" x2="198" y2="156" stroke="#888"/><line x1="196" y1="148" x2="200" y2="151" stroke="#888"/><line x1="202" y1="143" x2="205" y2="147" stroke="#888"/><line x1="210" y1="141" x2="210" y2="146" stroke="#888"/><line x1="218" y1="143" x2="215" y2="147" stroke="#888"/><line x1="224" y1="148" x2="220" y2="151" stroke="#888"/><line x1="227" y1="155" x2="222" y2="156" stroke="#888"/><line x1="226" y1="163" x2="221" y2="162" stroke="#888"/><line x1="222" y1="170" x2="218" y2="166" stroke="#888"/><text x="210" y="168" font-size="9" fill="#eee" text-anchor="middle" font-weight="bold">HV x100 V</text><text x="210" y="190" font-size="8" fill="#888" text-anchor="middle">← oil press</text><circle cx="170" cy="202" r="17.0" fill="#111" stroke="#999" stroke-width="2"/><line x1="160" y1="212" x2="164" y2="208" stroke="#888"/><line x1="157" y1="206" x2="161" y2="205" stroke="#888"/><line x1="156" y1="200" x2="161" y2="201" stroke="#888"/><line x1="159" y1="194" x2="163" y2="197" stroke="#888"/><line x1="164" y1="190" x2="166" y2="194" stroke="#888"/><line x1="170" y1="188" x2="170" y2="193" stroke="#888"/><line x1="176" y1="190" x2="174" y2="194" stroke="#888"/><line x1="181" y1="194" x2="177" y2="197" stroke="#888"/><line x1="184" y1="200" x2="179" y2="201" stroke="#888"/><line x1="183" y1="206" x2="179" y2="205" stroke="#888"/><line x1="180" y1="212" x2="176" y2="208" stroke="#888"/><text x="170" y="210" font-size="9" fill="#eee" text-anchor="middle" font-weight="bold">BATT C</text><text x="170" y="231" font-size="8" fill="#888" text-anchor="middle">← oil temp</text><circle cx="250" cy="202" r="17.0" fill="#111" stroke="#999" stroke-width="2"/><line x1="240" y1="212" x2="244" y2="208" stroke="#888"/><line x1="237" y1="206" x2="241" y2="205" stroke="#888"/><line x1="236" y1="200" x2="241" y2="201" stroke="#888"/><line x1="239" y1="194" x2="243" y2="197" stroke="#888"/><line x1="244" y1="190" x2="246" y2="194" stroke="#888"/><line x1="250" y1="188" x2="250" y2="193" stroke="#888"/><line x1="256" y1="190" x2="254" y2="194" stroke="#888"/><line x1="261" y1="194" x2="257" y2="197" stroke="#888"/><line x1="264" y1="200" x2="259" y2="201" stroke="#888"/><line x1="263" y1="206" x2="259" y2="205" stroke="#888"/><line x1="260" y1="212" x2="256" y2="208" stroke="#888"/><text x="250" y="210" font-size="9" fill="#eee" text-anchor="middle" font-weight="bold">COOLANT</text><text x="250" y="231" font-size="8" fill="#888" text-anchor="middle">native</text><text x="20" y="266" font-size="10" fill="#999">"←" = was-gas gauge, repurposed · print 1:1 as a face template · DXF panel from dash-panel.scad</text></svg>
