<svg xmlns="http://www.w3.org/2000/svg" viewBox="0 0 820 360" font-family="Helvetica,Arial,sans-serif">
  <rect width="820" height="360" fill="#f7f7f5"/>
  <text x="20" y="32" font-size="20" font-weight="bold" fill="#222">944 EV — Step 4: Batteries in, low</text>
  <text x="20" y="54" font-size="13" fill="#666">Packs mounted LOW: front box + main box (where the tank was). Split for ~50/50, low CG.</text>
  <line x1="20" y1="272" x2="800" y2="272" stroke="#bbb" stroke-width="2"/>
  <path d="M60 252 Q60 240 80 234 L150 198 L330 190 Q360 190 374 170 L420 132 Q430 124 444 124 L590 124 Q606 124 616 136 L740 186 L788 202 Q800 208 800 224 L800 252 Z" fill="#e9eef2" stroke="#5b6b78" stroke-width="2"/>
  <path d="M404 152 L446 128 L588 128 L618 152 L588 170 L430 170 Z" fill="#cfe0ec" stroke="#5b6b78" stroke-width="1.5"/>
  <circle cx="200" cy="252" r="42" fill="#2b2b2b"/><circle cx="200" cy="252" r="17" fill="#888"/>
  <circle cx="660" cy="252" r="42" fill="#2b2b2b"/><circle cx="660" cy="252" r="17" fill="#888"/>
  <rect x="276" y="230" width="332" height="10" rx="3" fill="#2e7d32" stroke="#1b5e20"/>
  <rect x="132" y="170" width="120" height="40" rx="8" fill="#1565c0" stroke="#0d47a1" stroke-width="2"/>
  <text x="192" y="194" font-size="12" fill="#fff" text-anchor="middle" font-weight="bold">EM57</text>
  <rect x="252" y="186" width="16" height="26" rx="3" fill="#e67e22" stroke="#bf360c"/>
  <rect x="120" y="214" width="150" height="22" rx="4" fill="#1976d2" stroke="#0d47a1" stroke-width="2"/>
  <text x="195" y="229" font-size="11" fill="#fff" text-anchor="middle" font-weight="bold">FRONT PACK (6)</text>
  <rect x="430" y="210" width="160" height="26" rx="4" fill="#1976d2" stroke="#0d47a1" stroke-width="2"/>
  <text x="510" y="227" font-size="11" fill="#fff" text-anchor="middle" font-weight="bold">MAIN PACK (8) — low</text>
  <rect x="600" y="202" width="96" height="44" rx="6" fill="#2e7d32" stroke="#1b5e20" stroke-width="2"/>
  <text x="648" y="224" font-size="11" fill="#fff" text-anchor="middle" font-weight="bold">TRANSAXLE</text>
  <text x="350" y="300" font-size="12" fill="#0d47a1" font-weight="bold">↓ all mass low in the floor = lower CG than stock</text>
  <g font-size="11">
    <rect x="20" y="312" width="14" height="14" fill="#c0392b"/><text x="40" y="324" fill="#333">gas / removed</text>
    <rect x="170" y="312" width="14" height="14" fill="#2e7d32"/><text x="190" y="324" fill="#333">kept (944)</text>
    <rect x="290" y="312" width="14" height="14" fill="#1565c0"/><text x="310" y="324" fill="#333">electric (Leaf)</text>
    <rect x="430" y="312" width="14" height="14" fill="#e67e22"/><text x="450" y="324" fill="#333">new part</text>
  </g>
</svg>
