<svg xmlns="http://www.w3.org/2000/svg" viewBox="0 0 820 380" font-family="Helvetica,Arial,sans-serif">
  <rect width="820" height="380" fill="#f7f7f5"/>
  <text x="20" y="30" font-size="20" font-weight="bold" fill="#222">944 EV — Top-down layout</text>
  <text x="20" y="52" font-size="13" fill="#666">Motor + electronics up front, battery split front/main around the tunnel, transaxle + subs at the rear.</text>
  <path d="M70 190 Q72 128 156 116 L584 108 Q716 112 758 162 Q772 190 758 218 Q716 268 584 272 L156 264 Q72 252 70 190 Z" fill="#e9eef2" stroke="#5b6b78" stroke-width="2"/>
  <rect x="146" y="100" width="58" height="22" rx="5" fill="#2b2b2b"/>
  <rect x="146" y="258" width="58" height="22" rx="5" fill="#2b2b2b"/>
  <rect x="612" y="98" width="58" height="22" rx="5" fill="#2b2b2b"/>
  <rect x="612" y="260" width="58" height="22" rx="5" fill="#2b2b2b"/>
  <rect x="300" y="184" width="300" height="12" rx="3" fill="#2e7d32" stroke="#1b5e20"/>
  <text x="430" y="180" font-size="10" fill="#1b5e20">torque tube</text>
  <rect x="150" y="130" width="112" height="22" rx="4" fill="#0d47a1"/>
  <text x="206" y="145" font-size="10" fill="#fff" text-anchor="middle">inverter + ZombieVerter</text>
  <rect x="150" y="158" width="112" height="64" rx="8" fill="#1565c0" stroke="#0d47a1" stroke-width="2"/>
  <text x="206" y="188" font-size="13" fill="#fff" text-anchor="middle" font-weight="bold">EM57</text>
  <text x="206" y="204" font-size="11" fill="#fff" text-anchor="middle">motor</text>
  <rect x="150" y="228" width="112" height="30" rx="4" fill="#1976d2" stroke="#0d47a1" stroke-width="2"/>
  <text x="206" y="247" font-size="11" fill="#fff" text-anchor="middle" font-weight="bold">FRONT PACK (6)</text>
  <rect x="92" y="158" width="50" height="40" rx="4" fill="#1976d2"/>
  <text x="117" y="182" font-size="10" fill="#fff" text-anchor="middle">PDM</text>
  <rect x="92" y="204" width="50" height="28" rx="4" fill="#e67e22"/>
  <text x="117" y="222" font-size="10" fill="#fff" text-anchor="middle">HV box</text>
  <circle cx="116" cy="126" r="9" fill="#e67e22" stroke="#bf360c"/>
  <text x="116" y="110" font-size="9" fill="#bf360c" text-anchor="middle">J1772</text>
  <rect x="300" y="150" width="72" height="28" rx="4" fill="#cfe0ec" stroke="#5b6b78"/>
  <text x="336" y="168" font-size="10" fill="#33576e" text-anchor="middle">driver</text>
  <rect x="300" y="202" width="72" height="28" rx="4" fill="#cfe0ec" stroke="#5b6b78"/>
  <text x="336" y="220" font-size="10" fill="#33576e" text-anchor="middle">pass</text>
  <rect x="410" y="150" width="150" height="30" rx="4" fill="#1976d2" stroke="#0d47a1" stroke-width="2"/>
  <rect x="410" y="200" width="150" height="30" rx="4" fill="#1976d2" stroke="#0d47a1" stroke-width="2"/>
  <text x="485" y="145" font-size="11" fill="#0d47a1" text-anchor="middle" font-weight="bold">MAIN PACK (8) — flanks the tunnel</text>
  <rect x="600" y="158" width="78" height="64" rx="6" fill="#2e7d32" stroke="#1b5e20" stroke-width="2"/>
  <text x="639" y="186" font-size="10" fill="#fff" text-anchor="middle" font-weight="bold">TRANS-</text>
  <text x="639" y="200" font-size="10" fill="#fff" text-anchor="middle" font-weight="bold">AXLE</text>
  <rect x="690" y="166" width="58" height="48" rx="5" fill="#6a1b9a" stroke="#4a148c"/>
  <text x="719" y="194" font-size="11" fill="#fff" text-anchor="middle" font-weight="bold">SUBS</text>
  <text x="80" y="312" font-size="12" fill="#888" font-weight="bold">◄ FRONT</text>
  <text x="700" y="312" font-size="12" fill="#888" font-weight="bold">REAR ►</text>
  <g font-size="11">
    <rect x="20" y="338" width="14" height="14" fill="#2e7d32"/><text x="40" y="350" fill="#333">kept (944)</text>
    <rect x="140" y="338" width="14" height="14" fill="#1565c0"/><text x="160" y="350" fill="#333">electric (Leaf)</text>
    <rect x="280" y="338" width="14" height="14" fill="#e67e22"/><text x="300" y="350" fill="#333">new / HV</text>
    <rect x="400" y="338" width="14" height="14" fill="#6a1b9a"/><text x="420" y="350" fill="#333">audio</text>
  </g>
</svg>
